<svg preserveAspectRatio="none" overflow="visible" style="display: block;" width="24" height="24" viewBox="0 0 24 24" fill="none" xmlns="http://www.w3.org/2000/svg">
<g id="pixelarticons:cheese">
<path id="Union" d="M2 20H22V22H0V18H2V20ZM24 20H22V12H18V14H16V12H2V14H0V10H2V8H4V10H22V8H24V20ZM4 16H6V18H2V14H4V16ZM10 18H8V16H10V18ZM18 18H16V16H18V18ZM8 16H6V14H8V16ZM16 16H14V14H16V16ZM20 16H18V14H20V16ZM8 8H4V6H8V8ZM18 8H14V6H18V8ZM22 8H20V4H22V8ZM12 6H8V4H12V6ZM20 4H12V2H20V4Z" fill="white"/>
</g>
</svg>
